<svg xmlns="http://www.w3.org/2000/svg" viewBox="30 465 940 70" fill="#c8c8c8">
  <g>
    <path d="M94.34,472.5h-41.36c-.16,0-.32.02-.48.02-.08,0-.16,0-.24.01-.43.02-.86.07-1.28.13-.09.01-.19.02-.28.04-.09.02-.18.03-.27.05-3.33.6-6.33,2.26-8.5,4.78-2.07,2.4-3.16,5.3-3.16,8.39v41.47h.35v.1h41.46c2.11,0,4.1-.5,5.89-1.38,1.86-.86,3.52-2.09,4.86-3.64,2.07-2.4,3.16-5.3,3.16-8.39v-41.58h-.16ZM67.58,501.6h4.24l8.78.06c5.93,0,10.75,5.06,10.75,11.29s-4.82,11.29-10.75,11.29l-6.55.04c-3.82-2-6.41-5.82-6.41-10.19l-.06-8.93v-3.55ZM92.64,505.24v.52c-.87-1.6-2.02-3.01-3.37-4.15-2.37-2.01-5.39-3.21-8.68-3.21l-13.02-.03v-12.52c-.02-3.06-1.11-5.94-3.16-8.32-.58-.67-1.22-1.28-1.91-1.82h30.13v29.53ZM52.71,475.77l6.53-.04c3.82,2,6.41,5.82,6.41,10.2l.03,12.45-12.69-.03c-5.93,0-10.75-5.06-10.75-11.29s4.67-11.13,10.47-11.29ZM40.65,524.29v-30.62c.9,1.83,2.15,3.44,3.67,4.72,2.36,1.99,5.35,3.19,8.6,3.21.02,0,.05,0,.07,0s.05,0,.07,0h12.62l.03,12.48c0,3.09,1.09,5.99,3.16,8.39.58.67,1.22,1.28,1.9,1.82h-30.13Z"/>
    <path d="M80.59,528.14h-42.1v-.1h-.35v-42.11c0-3.24,1.15-6.29,3.32-8.81,2.24-2.6,5.38-4.37,8.87-4.99l.48-.08c.53-.08.98-.12,1.43-.15l.42-.02c.11,0,.22-.01.33-.01h42.16v42.22c0,3.24-1.15,6.29-3.32,8.8-1.39,1.61-3.1,2.9-5.04,3.81-1.93.96-4.01,1.44-6.16,1.44ZM39.77,526.86h40.82c1.95,0,3.84-.44,5.61-1.32,1.83-.84,3.39-2.01,4.66-3.49,1.97-2.29,3.01-5.04,3.01-7.97v-40.94h-40.88c-.09,0-.17,0-.25,0l-.43.02c-.41.02-.82.06-1.22.12l-.52.08c-3.21.57-6.09,2.2-8.14,4.57-1.97,2.29-3.01,5.04-3.01,7.97v40.84h.35v.1ZM72.59,524.93h-32.58l.02-33.98,1.19,2.44c.85,1.74,2.06,3.3,3.5,4.51,2.35,1.98,5.18,3.04,8.2,3.06l.1.64.04-.64h13.26l.03,13.12c0,2.93,1.04,5.69,3.01,7.98.53.62,1.14,1.2,1.81,1.74l1.42,1.13ZM41.28,523.66h27.82c-.25-.25-.49-.51-.71-.77-2.17-2.52-3.32-5.56-3.32-8.8l-.02-11.84h-12.11c-3.34-.02-6.46-1.18-9.04-3.36-1-.84-1.87-1.81-2.62-2.88v27.65ZM73.89,524.92l-.14-.07c-4.16-2.18-6.75-6.3-6.75-10.76l-.06-13.12h4.87l8.79.06c6.27,0,11.38,5.35,11.38,11.93s-5.11,11.93-11.39,11.93l-6.71.04ZM68.21,502.24v2.91l.06,8.93c0,3.93,2.27,7.58,5.93,9.56l6.39-.04c5.58,0,10.12-4.78,10.12-10.65s-4.54-10.65-10.11-10.65l-12.38-.06ZM93.26,508.24l-1.18-2.18c-.83-1.53-1.92-2.87-3.22-3.97-2.37-2-5.23-3.06-8.26-3.06l-13.65-.03v-13.15c-.02-2.9-1.06-5.64-3.01-7.91-.54-.62-1.15-1.21-1.82-1.74l-1.43-1.13h32.59l-.02,33.17ZM68.21,497.74l12.38.02c3.29,0,6.52,1.19,9.09,3.36.87.73,1.64,1.56,2.32,2.47v-27.24h-27.83c.25.25.49.51.72.77,2.15,2.5,3.3,5.52,3.32,8.73v11.89ZM66.31,499l-13.33-.03c-6.28,0-11.38-5.35-11.38-11.93s4.98-11.76,11.09-11.92h.01s6.69-.04,6.69-.04l.14.07c4.17,2.18,6.75,6.3,6.75,10.76l.03,13.08ZM52.72,476.4c-5.43.15-9.85,4.92-9.85,10.65s4.54,10.65,10.11,10.65l12.05.02-.02-11.81c0-3.94-2.27-7.59-5.93-9.56l-6.36.04Z"/>
  </g>
  <g>
    <path d="M68.31,485.93v.15s0-.05,0-.07,0-.05,0-.07Z"/>
    <polygon points="68.95 486.08 67.67 486.08 67.67 485.93 68.95 485.93 68.31 485.93 68.95 485.96 68.95 486.08"/>
  </g>
  <g>
    <g>
      <path d="M130.78,502.41c-4.16,0-7.7-.18-10.6-.54-2.9-.36-5.26-.96-7.04-1.8-1.81-.84-3.12-1.94-3.92-3.29-.8-1.35-1.2-3.03-1.2-5.01,0-2.21.41-4.08,1.23-5.59s2.13-2.72,3.92-3.64c1.79-.92,4.14-1.58,7.05-1.98s6.43-.6,10.6-.6h18.96v5.04h-18.96c-3.25,0-6,.11-8.25.34-2.25.23-4.08.6-5.47,1.12s-2.4,1.19-3.01,2.03c-.61.84-.92,1.89-.92,3.15,0,1.03.32,1.9.95,2.61s1.64,1.29,3.04,1.75c1.39.46,3.21.78,5.44.97,2.23.19,4.98.29,8.22.29,3.86,0,7.1.2,9.74.6,2.64.4,4.76,1.06,6.39,1.98,1.62.92,2.79,2.11,3.49,3.58.71,1.47,1.06,3.28,1.06,5.41s-.34,3.87-1.03,5.3c-.69,1.43-1.83,2.59-3.44,3.47-1.6.88-3.72,1.51-6.36,1.89-2.64.38-5.92.57-9.85.57h-23.95v-5.04h23.95c2.86,0,5.28-.11,7.25-.32,1.97-.21,3.56-.55,4.78-1.03,1.22-.48,2.11-1.1,2.66-1.86.55-.76.83-1.7.83-2.81,0-1.22-.26-2.25-.77-3.09-.51-.84-1.37-1.52-2.58-2.03-1.2-.52-2.8-.89-4.78-1.12-1.99-.23-4.45-.34-7.39-.34Z"/>
      <path d="M130.78,521.12h-25.02v-7.19h25.02c2.81,0,5.21-.1,7.13-.31,1.86-.2,3.38-.52,4.51-.96,1.02-.4,1.76-.9,2.18-1.49.42-.58.63-1.3.63-2.18,0-1.01-.21-1.87-.62-2.53-.39-.64-1.1-1.19-2.09-1.61-1.1-.47-2.61-.82-4.48-1.04-1.93-.22-4.38-.34-7.27-.34-4.19,0-7.8-.19-10.73-.55-3-.37-5.49-1.01-7.39-1.89-2.01-.93-3.49-2.18-4.4-3.72-.9-1.51-1.35-3.38-1.35-5.56,0-2.38.46-4.44,1.36-6.1.92-1.7,2.4-3.07,4.38-4.08,1.89-.97,4.38-1.67,7.39-2.04,2.94-.41,6.55-.61,10.75-.61h20.03v7.19h-20.03c-3.2,0-5.94.11-8.14.34-2.15.22-3.9.57-5.21,1.06-1.18.44-2.03,1-2.51,1.66-.48.66-.71,1.48-.71,2.52,0,.77.22,1.39.67,1.89.5.56,1.36,1.05,2.57,1.44,1.31.43,3.06.74,5.2.92,2.18.19,4.92.28,8.13.28,3.9,0,7.23.21,9.9.61,2.75.42,5.03,1.13,6.75,2.1,1.81,1.02,3.13,2.38,3.93,4.05.77,1.61,1.17,3.59,1.17,5.88s-.38,4.19-1.14,5.76c-.79,1.63-2.09,2.96-3.89,3.94-1.71.94-3.97,1.61-6.72,2.01-2.68.39-6.04.58-10.01.58ZM107.9,518.98h22.88c3.86,0,7.13-.19,9.7-.56,2.49-.36,4.51-.96,6-1.77,1.41-.77,2.39-1.75,2.99-2.99.61-1.28.93-2.91.93-4.83s-.32-3.63-.96-4.95c-.61-1.26-1.64-2.31-3.05-3.11-1.5-.85-3.53-1.47-6.02-1.85-2.57-.39-5.79-.59-9.58-.59-3.27,0-6.07-.1-8.31-.29-2.3-.2-4.22-.54-5.68-1.02-1.59-.52-2.74-1.2-3.5-2.05-.81-.91-1.22-2.02-1.22-3.32,0-1.49.38-2.76,1.12-3.78.74-1.01,1.92-1.82,3.5-2.41,1.47-.54,3.4-.94,5.73-1.18,2.27-.23,5.09-.35,8.36-.35h17.89v-2.9h-17.89c-4.09,0-7.61.2-10.45.59-2.77.38-5.03,1.01-6.7,1.87-1.59.81-2.76,1.89-3.47,3.2-.73,1.34-1.1,3.05-1.1,5.07,0,1.78.35,3.29,1.05,4.47.69,1.16,1.85,2.12,3.45,2.87,1.7.79,3.98,1.37,6.76,1.71,2.84.36,6.37.54,10.47.54,2.97,0,5.5.12,7.51.35,2.08.24,3.79.64,5.04,1.2,1.41.6,2.44,1.43,3.07,2.46.62,1.01.93,2.24.93,3.65,0,1.33-.35,2.49-1.04,3.44-.67.93-1.73,1.68-3.14,2.23-1.31.51-3.01.88-5.06,1.1-2,.21-4.44.32-7.36.32h-22.88v2.9Z"/>
    </g>
    <g>
      <path d="M169.51,486.19c0-2.06.68-3.71,2.03-4.96,1.36-1.24,3.18-1.86,5.47-1.86.8,0,1.51.07,2.12.2.61.13,1.22.4,1.83.8.61.4,1.28.98,2.01,1.75.72.76,1.56,1.78,2.52,3.04l26.41,34.89h-6.36l-25.44-33.46c-.8-1.03-1.4-1.7-1.81-2.01-.4-.3-.85-.46-1.35-.46-.69,0-1.24.22-1.66.66-.42.44-.63,1.04-.63,1.8v33.46h-5.16v-33.86ZM207.89,501.2v-21.25h5.16v21.25h-5.16Z"/>
      <path d="M214.06,521.12h-9.05l-25.76-33.88c-.96-1.24-1.42-1.66-1.6-1.8-.21-.16-.43-.24-.69-.24-.51,0-.75.19-.89.33-.22.23-.33.58-.33,1.06v34.53h-7.3v-34.93c0-2.37.8-4.3,2.38-5.75,1.55-1.42,3.64-2.14,6.2-2.14.88,0,1.67.08,2.35.23.74.16,1.48.48,2.19.95.68.45,1.41,1.09,2.19,1.9.75.79,1.63,1.85,2.6,3.13l27.71,36.61ZM206.07,518.98h3.67l-25.11-33.17c-.92-1.22-1.75-2.21-2.44-2.95-.67-.7-1.28-1.23-1.82-1.59-.5-.33-.99-.54-1.48-.65-.53-.12-1.17-.18-1.89-.18-2.03,0-3.59.52-4.75,1.58-1.13,1.04-1.68,2.4-1.68,4.16v32.79h3.01v-32.39c0-1.04.31-1.9.93-2.54.62-.65,1.46-.99,2.44-.99.73,0,1.4.23,2,.68.49.38,1.13,1.07,2,2.2l25.12,33.04ZM214.12,502.28h-7.3v-23.4h7.3v23.4ZM208.96,500.13h3.01v-19.11h-3.01v19.11Z"/>
    </g>
    <g>
      <path d="M279.44,486.59c-.46-.8-.85-1.32-1.18-1.55-.32-.23-.75-.34-1.29-.34s-1.01.22-1.43.66c-.42.44-.63,1.04-.63,1.8v33.46h-5.16v-33.86c0-2.06.62-3.71,1.86-4.96,1.24-1.24,2.95-1.86,5.13-1.86.88,0,1.63.05,2.26.14.63.1,1.22.31,1.78.63.55.32,1.09.79,1.6,1.4.51.61,1.06,1.43,1.63,2.46l16.33,28.02c.61.99,1.1,1.62,1.46,1.89.36.27.81.4,1.35.4.57,0,1.03-.19,1.37-.57.34-.38.55-.88.63-1.49l2.35-27.38c.15-1.68.89-3.02,2.21-4.01,1.32-.99,3.14-1.49,5.47-1.49.96,0,1.8.07,2.52.2.72.13,1.39.4,2.01.8.61.4,1.2.98,1.77,1.75.57.76,1.17,1.78,1.78,3.04l16.79,34.89h-5.9l-16.27-33.46c-.54-1.11-1.02-1.8-1.46-2.06-.44-.27-.97-.4-1.58-.4-.57,0-1.06.16-1.46.49-.4.33-.64.79-.72,1.4l-2.35,25.95c-.19,2.29-.88,4.04-2.06,5.24-1.18,1.2-3,1.8-5.44,1.8-.84,0-1.6-.08-2.26-.23-.67-.15-1.33-.48-1.98-.97-.65-.5-1.32-1.21-2.01-2.15-.69-.94-1.47-2.17-2.35-3.7l-14.78-25.95Z"/>
      <path d="M341.76,521.7h-8.28l-16.56-34.06c-.65-1.34-1.02-1.59-1.06-1.62-.48-.29-1.33-.38-1.8,0-.11.09-.27.27-.33.7l-2.34,25.92c-.21,2.53-1.01,4.52-2.37,5.9-1.39,1.41-3.48,2.12-6.21,2.12-.92,0-1.76-.09-2.5-.26-.81-.19-1.62-.58-2.39-1.17-.74-.56-1.46-1.34-2.22-2.37-.71-.97-1.52-2.24-2.41-3.8l-14.78-25.96h0c-.54-.95-.81-1.17-.86-1.2-.14-.1-.37-.15-.67-.15-.16,0-.38.04-.66.33-.22.23-.33.58-.33,1.06v34.53h-7.3v-34.93c0-2.35.73-4.27,2.18-5.71,1.45-1.44,3.43-2.18,5.89-2.18.92,0,1.74.05,2.42.15.76.12,1.49.37,2.16.77.66.38,1.29.93,1.88,1.64.56.67,1.15,1.55,1.75,2.64l16.32,28c.74,1.2,1.08,1.5,1.17,1.57.18.13.41.19.71.19.34,0,.48-.11.57-.21.2-.22.32-.52.37-.91l2.35-27.34c.18-1.99,1.06-3.59,2.63-4.77,1.5-1.13,3.56-1.71,6.12-1.71,1.01,0,1.93.07,2.71.22.86.16,1.67.48,2.4.96.71.47,1.4,1.14,2.04,2,.61.82,1.25,1.9,1.88,3.21l17.53,36.43ZM334.83,519.55h3.52l-16.04-33.35c-.58-1.19-1.14-2.15-1.67-2.86-.5-.66-1-1.16-1.51-1.49-.5-.32-1.02-.53-1.61-.64-.66-.12-1.44-.18-2.33-.18-2.08,0-3.7.43-4.83,1.27-1.08.81-1.66,1.87-1.78,3.25l-2.35,27.38c-.11.87-.41,1.57-.9,2.12-.54.6-1.29.93-2.17.93-.77,0-1.44-.21-1.98-.61-.48-.35-1.04-1.05-1.74-2.19l-16.34-28.04c-.55-.98-1.06-1.75-1.53-2.31-.43-.51-.88-.91-1.33-1.17-.44-.26-.9-.42-1.4-.5-.58-.09-1.28-.13-2.1-.13-1.9,0-3.33.51-4.37,1.55-1.04,1.04-1.55,2.42-1.55,4.2v32.79h3.01v-32.39c0-1.05.31-1.9.93-2.55.62-.65,1.38-.99,2.21-.99.76,0,1.4.18,1.91.54.46.33.94.93,1.49,1.89h0s14.78,25.96,14.78,25.96c.85,1.48,1.62,2.69,2.28,3.59.62.85,1.23,1.5,1.79,1.93.52.4,1.05.66,1.56.78.59.13,1.27.2,2.03.2,2.13,0,3.71-.5,4.68-1.48,1-1.01,1.59-2.55,1.76-4.58l2.35-25.96c.12-.93.49-1.63,1.11-2.14.6-.48,1.32-.73,2.14-.73s1.52.19,2.13.56c.63.39,1.23,1.18,1.87,2.51l15.98,32.85Z"/>
    </g>
    <g>
      <path d="M371.45,479.89h13.52c2.9,0,5.55.48,7.93,1.43,2.39.96,4.42,2.29,6.1,4.01,1.68,1.72,2.99,3.79,3.92,6.22.93,2.43,1.4,5.13,1.4,8.11s-.47,5.84-1.4,8.36c-.94,2.52-2.24,4.67-3.92,6.45-1.68,1.78-3.71,3.15-6.1,4.13-2.39.97-5.03,1.46-7.93,1.46h-13.52c-2.68,0-5.12-.49-7.33-1.46-2.22-.97-4.11-2.35-5.67-4.13-1.57-1.78-2.78-3.92-3.64-6.45-.86-2.52-1.29-5.31-1.29-8.36s.43-5.68,1.29-8.11c.86-2.42,2.07-4.5,3.64-6.22,1.57-1.72,3.46-3.06,5.67-4.01,2.21-.95,4.66-1.43,7.33-1.43ZM371.45,484.93c-1.91,0-3.65.35-5.21,1.06-1.57.71-2.91,1.7-4.04,2.98-1.13,1.28-2,2.83-2.61,4.64-.61,1.81-.92,3.83-.92,6.04,0,4.81,1.13,8.58,3.38,11.29,2.25,2.71,5.38,4.07,9.4,4.07h13.52c2.14,0,4.08-.36,5.82-1.09,1.74-.72,3.23-1.76,4.47-3.09,1.24-1.34,2.21-2.95,2.89-4.84.69-1.89,1.03-4,1.03-6.33s-.34-4.23-1.03-6.04c-.69-1.81-1.65-3.36-2.89-4.64-1.24-1.28-2.73-2.27-4.47-2.98-1.74-.71-3.68-1.06-5.82-1.06h-13.52Z"/>
      <path d="M384.97,521.12h-13.52c-2.81,0-5.42-.52-7.76-1.55-2.35-1.03-4.38-2.51-6.04-4.4-1.65-1.88-2.95-4.17-3.85-6.81-.89-2.62-1.35-5.55-1.35-8.71s.46-5.93,1.35-8.46c.9-2.55,2.2-4.77,3.86-6.58,1.66-1.82,3.7-3.26,6.04-4.27,2.34-1.01,4.95-1.52,7.76-1.52h13.52c3.02,0,5.83.51,8.33,1.51,2.52,1.01,4.69,2.44,6.47,4.26,1.77,1.81,3.17,4.03,4.16,6.58.98,2.54,1.48,5.4,1.48,8.49s-.5,6.11-1.47,8.74c-.98,2.64-2.38,4.93-4.15,6.81-1.78,1.84-3.96,3.35-6.47,4.38-2.51,1.02-5.31,1.54-8.34,1.54ZM371.45,480.96c-2.51,0-4.84.45-6.91,1.34-2.06.89-3.85,2.15-5.3,3.75-1.46,1.6-2.61,3.57-3.42,5.85-.82,2.3-1.23,4.91-1.23,7.75s.42,5.62,1.23,8.02c.81,2.37,1.96,4.42,3.43,6.08,1.46,1.65,3.24,2.95,5.3,3.85,2.07.91,4.39,1.37,6.9,1.37h13.52c2.75,0,5.28-.46,7.53-1.38,2.23-.91,4.16-2.21,5.73-3.87,1.57-1.66,2.82-3.71,3.7-6.04.89-2.39,1.34-5.04,1.34-7.99s-.45-5.43-1.33-7.72c-.88-2.28-2.12-4.25-3.69-5.85-1.57-1.6-3.5-2.87-5.73-3.77-2.25-.9-4.79-1.36-7.54-1.36h-13.52ZM384.97,516.04h-13.52c-4.33,0-7.77-1.5-10.22-4.46-2.41-2.89-3.63-6.92-3.63-11.97,0-2.32.33-4.47.97-6.39.65-1.94,1.6-3.62,2.82-5.01,1.22-1.39,2.7-2.48,4.4-3.25,1.7-.77,3.6-1.15,5.66-1.15h13.52c2.26,0,4.36.38,6.22,1.14,1.87.76,3.49,1.85,4.83,3.23,1.34,1.38,2.39,3.07,3.13,5.01.73,1.93,1.1,4.09,1.1,6.42s-.37,4.7-1.1,6.7c-.73,2.01-1.78,3.77-3.12,5.2-1.34,1.44-2.97,2.57-4.84,3.35-1.86.78-3.96,1.17-6.23,1.17ZM371.45,486c-1.75,0-3.35.32-4.77.96-1.42.64-2.66,1.55-3.67,2.71-1.03,1.17-1.83,2.61-2.39,4.27-.57,1.69-.86,3.61-.86,5.7,0,4.53,1.05,8.1,3.13,10.6,2.06,2.48,4.86,3.68,8.57,3.68h13.52c1.99,0,3.8-.34,5.4-1.01,1.59-.66,2.96-1.62,4.09-2.83,1.14-1.23,2.04-2.73,2.67-4.48.64-1.76.97-3.77.97-5.96,0-2.07-.32-3.98-.96-5.66-.63-1.67-1.53-3.1-2.66-4.27-1.13-1.17-2.51-2.08-4.1-2.73-1.6-.65-3.42-.98-5.41-.98h-13.52Z"/>
    </g>
    <g>
      <path d="M438.99,485.1h-19.48v-5.16h19.48v5.16ZM467.07,485.1h-10.66c-3.28,0-5.86.87-7.73,2.61-1.87,1.74-2.81,4.12-2.81,7.13v25.21h-5.16v-25.21c0-2.29.36-4.36,1.09-6.22.72-1.85,1.78-3.42,3.15-4.7,1.38-1.28,3.05-2.26,5.01-2.95s4.17-1.03,6.62-1.03h10.48v5.16Z"/>
      <path d="M446.94,521.12h-7.3v-26.28c0-2.42.39-4.64,1.16-6.61.78-1.99,1.93-3.7,3.42-5.09,1.48-1.38,3.29-2.45,5.39-3.18,2.07-.72,4.42-1.09,6.97-1.09h11.56v7.3h-11.73c-2.99,0-5.35.78-7,2.32-1.66,1.54-2.47,3.62-2.47,6.35v26.28ZM441.79,518.98h3.01v-24.14c0-3.31,1.06-5.98,3.15-7.92,2.06-1.92,4.91-2.89,8.46-2.89h9.58v-3.01h-9.41c-2.31,0-4.42.33-6.26.97-1.81.63-3.37,1.55-4.64,2.72-1.25,1.17-2.22,2.61-2.88,4.3-.67,1.72-1.01,3.68-1.01,5.83v24.14ZM440.07,486.18h-21.62v-7.3h21.62v7.3ZM420.59,484.03h17.33v-3.01h-17.33v3.01Z"/>
    </g>
    <g>
      <path d="M500.18,479.89h13.52c2.9,0,5.55.48,7.93,1.43,2.39.96,4.42,2.29,6.1,4.01,1.68,1.72,2.99,3.79,3.92,6.22.94,2.43,1.4,5.13,1.4,8.11s-.47,5.84-1.4,8.36c-.93,2.52-2.24,4.67-3.92,6.45-1.68,1.78-3.71,3.15-6.1,4.13-2.39.97-5.03,1.46-7.93,1.46h-13.52c-2.67,0-5.12-.49-7.33-1.46-2.22-.97-4.11-2.35-5.67-4.13-1.57-1.78-2.78-3.92-3.64-6.45-.86-2.52-1.29-5.31-1.29-8.36s.43-5.68,1.29-8.11c.86-2.42,2.07-4.5,3.64-6.22,1.56-1.72,3.45-3.06,5.67-4.01,2.22-.95,4.66-1.43,7.33-1.43ZM500.18,484.93c-1.91,0-3.65.35-5.21,1.06-1.57.71-2.91,1.7-4.04,2.98-1.13,1.28-2,2.83-2.61,4.64-.61,1.81-.92,3.83-.92,6.04,0,4.81,1.13,8.58,3.38,11.29,2.25,2.71,5.38,4.07,9.4,4.07h13.52c2.14,0,4.08-.36,5.82-1.09,1.74-.72,3.23-1.76,4.47-3.09,1.24-1.34,2.21-2.95,2.89-4.84.69-1.89,1.03-4,1.03-6.33s-.34-4.23-1.03-6.04c-.69-1.81-1.65-3.36-2.89-4.64-1.24-1.28-2.73-2.27-4.47-2.98-1.74-.71-3.68-1.06-5.82-1.06h-13.52Z"/>
      <path d="M513.7,521.12h-13.52c-2.81,0-5.42-.52-7.77-1.55-2.35-1.03-4.38-2.51-6.04-4.4-1.65-1.87-2.95-4.17-3.85-6.81-.89-2.62-1.35-5.55-1.35-8.71s.45-5.93,1.35-8.46c.9-2.55,2.2-4.77,3.86-6.58,1.66-1.82,3.69-3.26,6.04-4.27,2.34-1.01,4.95-1.52,7.76-1.52h13.52c3.02,0,5.83.51,8.33,1.51,2.52,1.01,4.69,2.44,6.47,4.26,1.78,1.82,3.17,4.03,4.16,6.58.98,2.54,1.48,5.4,1.48,8.49s-.5,6.11-1.47,8.74c-.98,2.64-2.38,4.93-4.15,6.81-1.78,1.88-3.96,3.36-6.48,4.38-2.5,1.02-5.31,1.54-8.34,1.54ZM500.18,480.96c-2.51,0-4.84.45-6.91,1.34-2.06.89-3.85,2.15-5.3,3.75-1.46,1.6-2.61,3.57-3.42,5.85-.81,2.3-1.23,4.91-1.23,7.75s.41,5.62,1.23,8.02c.81,2.37,1.96,4.42,3.43,6.08,1.45,1.65,3.24,2.95,5.3,3.85,2.07.91,4.39,1.37,6.9,1.37h13.52c2.75,0,5.28-.46,7.53-1.38,2.23-.91,4.16-2.21,5.73-3.87,1.57-1.66,2.82-3.71,3.7-6.04.89-2.39,1.34-5.04,1.34-7.99s-.45-5.43-1.33-7.72c-.88-2.28-2.12-4.25-3.69-5.85-1.57-1.6-3.5-2.87-5.73-3.77-2.25-.9-4.79-1.36-7.54-1.36h-13.52ZM513.7,516.08h-13.52c-4.33,0-7.76-1.5-10.22-4.46-2.41-2.9-3.63-6.92-3.63-11.97,0-2.32.33-4.47.97-6.39.66-1.94,1.6-3.63,2.82-5.01,1.22-1.39,2.7-2.48,4.4-3.25,1.7-.77,3.6-1.15,5.65-1.15h13.52c2.27,0,4.36.38,6.22,1.14,1.87.76,3.5,1.85,4.83,3.23,1.34,1.38,2.39,3.06,3.13,5.01.73,1.93,1.1,4.09,1.1,6.42s-.37,4.7-1.1,6.7c-.74,2.02-1.78,3.77-3.12,5.2-1.34,1.44-2.97,2.57-4.84,3.35-1.86.78-3.96,1.17-6.23,1.17ZM500.18,486c-1.75,0-3.35.32-4.77.96-1.42.64-2.66,1.55-3.68,2.71-1.03,1.17-1.83,2.6-2.4,4.27-.57,1.69-.86,3.61-.86,5.7,0,4.53,1.05,8.1,3.13,10.6,2.06,2.48,4.86,3.68,8.57,3.68h13.52c1.99,0,3.8-.34,5.4-1.01,1.59-.66,2.97-1.62,4.1-2.83,1.14-1.22,2.04-2.73,2.67-4.48.64-1.76.97-3.77.97-5.96,0-2.07-.32-3.98-.96-5.66-.63-1.67-1.53-3.11-2.66-4.27-1.13-1.16-2.51-2.04-4.1-2.73-1.6-.65-3.42-.98-5.41-.98h-13.52Z"/>
    </g>
    <g>
      <path d="M555.01,497.02h10.6c6.15,0,10.61-.47,13.38-1.4,2.77-.94,4.15-2.55,4.15-4.84,0-1.03-.32-1.92-.95-2.66-.63-.74-1.64-1.35-3.04-1.8-1.39-.46-3.21-.79-5.44-1-2.23-.21-4.94-.32-8.11-.32h-18.5v-5.04h18.5c4.28,0,7.87.19,10.77.57,2.9.38,5.23,1,6.99,1.86,1.76.86,3.02,1.98,3.78,3.35.76,1.37,1.15,3.06,1.15,5.04s-.43,3.75-1.29,5.19c-.86,1.43-2.21,2.6-4.04,3.49-1.83.9-4.18,1.56-7.05,1.98-2.86.42-6.3.63-10.31.63h-2.06l25.72,17.99h-8.48l-25.78-17.99v-5.04Z"/>
      <path d="M592.67,521.12h-12.22l-26.52-18.5v-6.67h11.67c6,0,10.39-.45,13.03-1.35,3.07-1.04,3.43-2.68,3.43-3.83,0-.78-.23-1.42-.69-1.97-.5-.59-1.36-1.09-2.55-1.48-1.31-.43-3.06-.75-5.21-.95-2.2-.21-4.89-.31-8.01-.31h-19.58v-7.19h19.58c4.3,0,7.97.2,10.91.58,3.01.4,5.47,1.06,7.32,1.96,1.95.95,3.38,2.23,4.25,3.79.85,1.53,1.28,3.4,1.28,5.56s-.49,4.14-1.44,5.74c-.96,1.61-2.47,2.92-4.49,3.91-1.92.94-4.4,1.64-7.36,2.07-2.58.38-5.65.59-9.14.63l25.74,18ZM581.12,518.98h4.74l-25.72-17.99h5.47c3.94,0,7.36-.21,10.16-.62,2.74-.4,5.01-1.03,6.73-1.88,1.64-.8,2.84-1.84,3.59-3.04.75-1.26,1.14-2.82,1.14-4.63s-.34-3.31-1.01-4.52c-.65-1.17-1.77-2.15-3.31-2.91-1.64-.8-3.88-1.4-6.66-1.76-2.85-.37-6.43-.56-10.63-.56h-17.43v2.9h17.43c3.18,0,5.94.11,8.21.32,2.31.22,4.21.57,5.68,1.05,1.6.53,2.75,1.23,3.52,2.13.8.94,1.2,2.07,1.2,3.36,0,1.92-.85,4.49-4.88,5.86-2.91.98-7.4,1.46-13.72,1.46h-9.53v3.41l25.05,17.48Z"/>
    </g>
    <g>
      <path d="M631.83,502.41c-4.16,0-7.7-.18-10.6-.54-2.9-.36-5.26-.96-7.08-1.8s-3.12-1.94-3.92-3.29c-.8-1.35-1.2-3.03-1.2-5.01,0-2.21.41-4.04,1.23-5.59s2.13-2.72,3.92-3.64,4.14-1.58,7.05-1.98,6.44-.6,10.6-.6h18.96v5.04h-18.96c-3.25,0-6,.11-8.25.34-2.25.23-4.08.6-5.47,1.12-1.39.52-2.4,1.19-3.01,2.03-.61.84-.92,1.89-.92,3.15,0,1.03.32,1.9.95,2.61s1.64,1.29,3.04,1.75c1.39.46,3.21.78,5.44.97,2.23.19,4.97.29,8.22.29,3.86,0,7.1.2,9.74.6s4.76,1.06,6.39,1.98c1.62.92,2.79,2.11,3.49,3.58.71,1.47,1.06,3.28,1.06,5.41s-.34,3.87-1.03,5.3c-.69,1.43-1.83,2.59-3.44,3.47-1.6.88-3.73,1.51-6.36,1.89-2.63.38-5.92.57-9.85.57h-23.95v-5.04h23.95c2.86,0,5.28-.11,7.25-.32s3.56-.55,4.78-1.03,2.11-1.1,2.66-1.86c.55-.76.83-1.7.83-2.81,0-1.22-.26-2.25-.77-3.09-.52-.84-1.38-1.52-2.58-2.03-1.2-.52-2.8-.89-4.78-1.12-1.98-.23-4.45-.34-7.39-.34Z"/>
      <path d="M631.83,521.12h-25.02v-7.19h25.02c2.81,0,5.21-.1,7.13-.31,1.86-.2,3.38-.52,4.51-.96,1.02-.4,1.76-.9,2.19-1.49.42-.58.63-1.29.63-2.18,0-1.01-.21-1.87-.62-2.53-.4-.64-1.1-1.19-2.09-1.61-1.1-.47-2.61-.82-4.48-1.04-1.93-.22-4.38-.34-7.27-.34-4.19,0-7.8-.19-10.73-.55-3-.37-5.49-1.01-7.39-1.89-2.01-.93-3.48-2.18-4.4-3.72-.9-1.52-1.35-3.39-1.35-5.56,0-2.39.46-4.44,1.36-6.1.92-1.7,2.4-3.07,4.38-4.08,1.89-.97,4.38-1.67,7.39-2.08,2.94-.41,6.55-.61,10.75-.61h20.04v7.19h-20.04c-3.2,0-5.94.11-8.14.34-2.15.22-3.91.57-5.21,1.06-1.19.44-2.03,1-2.51,1.66-.48.66-.71,1.48-.71,2.52,0,.77.22,1.39.67,1.89.5.56,1.36,1.05,2.57,1.44,1.31.43,3.06.74,5.2.92,2.18.19,4.92.28,8.13.28,3.9,0,7.23.21,9.9.61,2.75.42,5.02,1.13,6.75,2.1,1.81,1.02,3.13,2.39,3.93,4.05.77,1.61,1.17,3.59,1.17,5.88s-.38,4.19-1.14,5.76c-.78,1.63-2.09,2.96-3.89,3.94-1.71.94-3.97,1.61-6.72,2.01-2.67.39-6.04.58-10.01.58ZM608.96,518.98h22.88c3.86,0,7.13-.19,9.7-.56,2.5-.36,4.51-.96,6-1.77,1.42-.78,2.39-1.75,2.98-2.99.61-1.28.93-2.91.93-4.84s-.32-3.63-.95-4.95c-.61-1.26-1.63-2.31-3.05-3.11-1.5-.85-3.53-1.47-6.02-1.85-2.57-.39-5.79-.59-9.58-.59-3.27,0-6.07-.1-8.31-.29-2.3-.2-4.22-.54-5.69-1.02-1.59-.52-2.74-1.2-3.5-2.05-.81-.9-1.22-2.02-1.22-3.32,0-1.49.38-2.76,1.12-3.78.73-1.01,1.91-1.82,3.5-2.41,1.47-.54,3.4-.94,5.73-1.18,2.27-.23,5.09-.35,8.36-.35h17.89v-2.9h-17.89c-4.09,0-7.61.2-10.45.59-2.77.38-5.03,1.01-6.7,1.87-1.59.81-2.76,1.89-3.47,3.2-.73,1.34-1.1,3.05-1.1,5.07,0,1.78.35,3.29,1.05,4.47.69,1.16,1.85,2.13,3.45,2.87,1.71.79,3.98,1.37,6.76,1.71,2.84.36,6.37.54,10.47.54,2.97,0,5.5.12,7.51.35,2.08.24,3.79.64,5.08,1.2,1.4.6,2.44,1.43,3.07,2.46.62,1.01.93,2.24.93,3.66,0,1.33-.35,2.49-1.03,3.44-.67.93-1.73,1.68-3.14,2.23-1.3.51-3.01.88-5.06,1.1-2,.21-4.48.32-7.36.32h-22.88v2.9Z"/>
    </g>
    <g>
      <path d="M686.54,502.35c-3.44,0-5.91.65-7.42,1.95-1.51,1.3-2.26,3.42-2.26,6.36v9.4h-5.16v-9.34c0-4.66,1.18-8.06,3.55-10.2,2.37-2.14,6.13-3.21,11.29-3.21h6.82c2.64,0,4.87-.11,6.7-.34,1.83-.23,3.31-.6,4.44-1.12,1.13-.52,1.95-1.17,2.46-1.98.51-.8.77-1.79.77-2.98,0-2.14-1.4-3.66-4.21-4.55-2.81-.9-7.38-1.35-13.72-1.35h-18.1v-5.04h18.1c4.28,0,7.89.2,10.83.6s5.32,1.03,7.13,1.89c1.81.86,3.12,1.99,3.92,3.38.8,1.4,1.2,3.08,1.2,5.07s-.35,3.82-1.06,5.27c-.71,1.45-1.85,2.64-3.44,3.55-1.59.92-3.62,1.59-6.1,2.01-2.48.42-5.5.63-9.05.63h-6.7Z"/>
      <path d="M677.93,521.12h-7.3v-10.41c0-4.95,1.31-8.65,3.91-10.99,2.56-2.31,6.6-3.48,12-3.48h6.82c2.58,0,4.79-.11,6.57-.34,1.71-.21,3.1-.56,4.13-1.03.93-.43,1.61-.96,2.01-1.58.4-.62.6-1.43.6-2.4,0-1.04-.36-2.54-3.47-3.53-2.69-.86-7.2-1.29-13.39-1.29h-19.18v-7.19h19.18c4.31,0,8,.21,10.97.61,3.04.42,5.54,1.08,7.45,1.98,2,.95,3.48,2.23,4.39,3.81.89,1.55,1.35,3.44,1.35,5.61s-.39,4.15-1.17,5.74c-.8,1.64-2.1,2.99-3.86,4.01-1.69.98-3.87,1.7-6.46,2.14-2.52.43-5.63.64-9.23.64h-6.7c-3.16,0-5.42.57-6.72,1.69-1.25,1.08-1.89,2.95-1.89,5.55v10.47ZM672.78,518.98h3.01v-8.32c0-3.25.89-5.67,2.64-7.17,1.73-1.49,4.38-2.21,8.12-2.21h6.7c3.48,0,6.47-.21,8.87-.61,2.34-.4,4.28-1.03,5.75-1.88,1.41-.82,2.39-1.83,3.01-3.09.63-1.3.95-2.91.95-4.8,0-1.79-.36-3.31-1.06-4.54-.69-1.19-1.85-2.19-3.45-2.95-1.7-.81-4-1.41-6.82-1.8-2.88-.39-6.47-.59-10.68-.59h-17.03v2.9h17.03c6.51,0,11.11.46,14.05,1.4,4.1,1.31,4.96,3.76,4.96,5.58,0,1.39-.32,2.58-.94,3.56-.63.97-1.61,1.77-2.92,2.37-1.22.56-2.82.97-4.75,1.21-1.87.23-4.17.35-6.83.35h-6.82c-4.86,0-8.41.99-10.57,2.93-2.12,1.92-3.2,5.08-3.2,9.4v8.27Z"/>
    </g>
    <g>
      <path d="M748.87,479.89h13.52c2.9,0,5.55.48,7.93,1.43,2.39.96,4.42,2.29,6.1,4.01,1.68,1.72,2.99,3.79,3.92,6.22.93,2.43,1.4,5.13,1.4,8.11s-.47,5.84-1.4,8.36c-.94,2.52-2.24,4.67-3.92,6.45-1.68,1.78-3.71,3.15-6.1,4.13-2.39.97-5.03,1.46-7.93,1.46h-13.52c-2.68,0-5.12-.49-7.33-1.46-2.22-.97-4.11-2.35-5.67-4.13-1.57-1.78-2.78-3.92-3.64-6.45-.86-2.52-1.29-5.31-1.29-8.36s.43-5.68,1.29-8.11c.86-2.42,2.07-4.5,3.64-6.22,1.57-1.72,3.46-3.06,5.67-4.01,2.21-.95,4.66-1.43,7.33-1.43ZM748.87,484.93c-1.91,0-3.65.35-5.21,1.06-1.57.71-2.91,1.7-4.04,2.98-1.13,1.28-2,2.83-2.61,4.64-.61,1.81-.92,3.83-.92,6.04,0,4.81,1.13,8.58,3.38,11.29,2.25,2.71,5.38,4.07,9.4,4.07h13.52c2.14,0,4.08-.36,5.82-1.09,1.74-.72,3.23-1.76,4.47-3.09,1.24-1.34,2.21-2.95,2.89-4.84.69-1.89,1.03-4,1.03-6.33s-.34-4.23-1.03-6.04c-.69-1.81-1.65-3.36-2.89-4.64-1.24-1.28-2.73-2.27-4.47-2.98-1.74-.71-3.68-1.06-5.82-1.06h-13.52Z"/>
      <path d="M762.39,521.12h-13.52c-2.81,0-5.42-.52-7.76-1.55-2.35-1.03-4.38-2.51-6.05-4.4-1.65-1.88-2.95-4.17-3.85-6.81-.89-2.62-1.35-5.55-1.35-8.71s.46-5.93,1.35-8.46c.9-2.55,2.2-4.77,3.86-6.58,1.66-1.82,3.69-3.26,6.04-4.27,2.34-1.01,4.95-1.52,7.76-1.52h13.52c3.02,0,5.83.51,8.33,1.51,2.52,1.01,4.69,2.44,6.47,4.26,1.77,1.81,3.17,4.03,4.16,6.58.98,2.54,1.47,5.4,1.47,8.49s-.49,6.11-1.47,8.74c-.98,2.64-2.38,4.93-4.15,6.81-1.78,1.88-3.96,3.35-6.48,4.38-2.51,1.02-5.31,1.54-8.34,1.54ZM748.87,480.96c-2.51,0-4.84.45-6.91,1.34-2.06.89-3.85,2.15-5.3,3.75-1.46,1.6-2.61,3.57-3.42,5.85-.82,2.3-1.23,4.91-1.23,7.75s.42,5.62,1.23,8.02c.81,2.37,1.96,4.42,3.43,6.08,1.46,1.65,3.24,2.95,5.3,3.85,2.07.91,4.39,1.37,6.9,1.37h13.52c2.75,0,5.28-.46,7.53-1.38,2.23-.91,4.16-2.21,5.73-3.87,1.57-1.66,2.82-3.71,3.7-6.08.89-2.39,1.33-5.08,1.33-7.99s-.45-5.43-1.33-7.72c-.88-2.28-2.12-4.25-3.69-5.85-1.57-1.6-3.5-2.87-5.73-3.77-2.25-.9-4.79-1.36-7.54-1.36h-13.52ZM762.39,516.08h-13.52c-4.33,0-7.77-1.5-10.22-4.46-2.41-2.89-3.63-6.92-3.63-11.97,0-2.32.33-4.47.97-6.39.65-1.94,1.6-3.63,2.82-5.01,1.22-1.39,2.7-2.48,4.4-3.25,1.7-.77,3.6-1.15,5.66-1.15h13.52c2.26,0,4.36.38,6.22,1.14,1.87.76,3.5,1.85,4.83,3.23,1.34,1.38,2.39,3.07,3.13,5.01.73,1.93,1.1,4.09,1.1,6.42s-.37,4.69-1.1,6.7c-.73,2.01-1.78,3.77-3.12,5.2-1.34,1.44-2.97,2.57-4.84,3.35-1.86.78-3.96,1.17-6.23,1.17ZM748.87,486c-1.75,0-3.35.32-4.77.96-1.42.64-2.66,1.55-3.67,2.71-1.03,1.17-1.83,2.6-2.39,4.27-.57,1.69-.86,3.61-.86,5.7,0,4.53,1.05,8.1,3.13,10.6,2.06,2.48,4.86,3.68,8.57,3.68h13.52c1.99,0,3.8-.34,5.4-1.01,1.59-.66,2.96-1.62,4.09-2.83,1.14-1.23,2.04-2.73,2.67-4.48.64-1.77.97-3.77.97-5.96,0-2.07-.32-3.98-.96-5.66-.63-1.67-1.53-3.1-2.66-4.27-1.13-1.17-2.51-2.04-4.1-2.73-1.6-.65-3.42-.98-5.41-.98h-13.52Z"/>
    </g>
    <g>
      <path d="M803.7,497.02h10.6c6.15,0,10.61-.47,13.38-1.4,2.77-.94,4.15-2.55,4.15-4.84,0-1.03-.32-1.92-.95-2.66-.63-.74-1.64-1.35-3.04-1.8-1.39-.46-3.21-.79-5.44-1-2.23-.21-4.94-.32-8.11-.32h-18.5v-5.04h18.5c4.28,0,7.87.19,10.77.57,2.9.38,5.23,1,6.99,1.86,1.76.86,3.02,1.98,3.78,3.35.76,1.37,1.15,3.06,1.15,5.04s-.43,3.75-1.29,5.19-2.21,2.6-4.04,3.49c-1.83.9-4.18,1.56-7.05,1.98-2.86.42-6.3.63-10.31.63h-2.06l25.72,17.99h-8.48l-25.78-17.99v-5.04Z"/>
      <path d="M841.36,521.12h-12.22l-26.52-18.5v-6.67h11.67c6,0,10.39-.45,13.04-1.35,3.07-1.04,3.42-2.68,3.42-3.83,0-.78-.23-1.42-.69-1.97-.5-.59-1.36-1.09-2.55-1.48-1.31-.43-3.06-.75-5.21-.95-2.2-.21-4.89-.31-8.01-.31h-19.58v-7.19h19.58c4.3,0,7.97.2,10.91.58,3.01.4,5.47,1.06,7.32,1.96,1.95.95,3.38,2.23,4.25,3.79.85,1.53,1.28,3.4,1.28,5.56s-.49,4.14-1.44,5.74c-.96,1.61-2.47,2.92-4.49,3.91-1.92.94-4.4,1.64-7.36,2.07-2.58.38-5.65.59-9.14.63l25.74,18ZM829.82,518.98h4.74l-25.72-17.99h5.47c3.94,0,7.36-.21,10.16-.62,2.75-.4,5.01-1.03,6.73-1.88,1.64-.8,2.84-1.84,3.59-3.04.75-1.26,1.14-2.82,1.14-4.63s-.34-3.31-1.01-4.52c-.65-1.17-1.77-2.15-3.31-2.91-1.64-.8-3.88-1.4-6.66-1.76-2.85-.37-6.43-.56-10.63-.56h-17.43v2.9h17.43c3.18,0,5.94.11,8.21.32,2.3.22,4.21.57,5.68,1.05,1.6.53,2.75,1.23,3.52,2.13.8.94,1.2,2.07,1.2,3.36,0,1.92-.85,4.49-4.88,5.86-2.91.98-7.4,1.46-13.72,1.46h-9.53v3.41l25.04,17.48Z"/>
    </g>
    <g>
      <path d="M870.61,485.1h-19.48v-5.16h19.48v5.16ZM898.69,485.1h-10.66c-3.29,0-5.86.87-7.73,2.61-1.87,1.74-2.81,4.12-2.81,7.13v25.21h-5.16v-25.21c0-2.29.36-4.36,1.09-6.22.73-1.85,1.78-3.42,3.15-4.7,1.38-1.28,3.05-2.26,5.01-2.95,1.97-.69,4.17-1.03,6.62-1.03h10.48v5.16Z"/>
      <path d="M878.56,521.12h-7.3v-26.28c0-2.41.39-4.64,1.16-6.61.78-2,1.93-3.71,3.42-5.09,1.48-1.38,3.29-2.45,5.39-3.18,2.07-.72,4.41-1.09,6.97-1.09h11.56v7.3h-11.73c-2.99,0-5.35.78-7,2.32-1.66,1.54-2.46,3.62-2.46,6.35v26.28ZM873.4,518.98h3.01v-24.14c0-3.31,1.06-5.98,3.15-7.92,2.07-1.92,4.92-2.89,8.46-2.89h9.58v-3.01h-9.41c-2.31,0-4.42.33-6.26.97-1.82.63-3.38,1.55-4.64,2.72-1.25,1.16-2.22,2.61-2.88,4.3-.67,1.72-1.01,3.68-1.01,5.82v24.14ZM871.69,486.18h-21.62v-7.3h21.62v7.3ZM852.21,484.03h17.33v-3.01h-17.33v3.01Z"/>
    </g>
    <g>
      <path d="M940.11,502.41c-4.16,0-7.7-.18-10.6-.54-2.9-.36-5.26-.96-7.08-1.8-1.81-.84-3.12-1.94-3.92-3.29-.8-1.35-1.2-3.03-1.2-5.01,0-2.21.41-4.08,1.23-5.59s2.13-2.72,3.92-3.64c1.79-.92,4.14-1.58,7.05-1.98s6.43-.6,10.6-.6h18.96v5.04h-18.96c-3.25,0-6,.11-8.25.34-2.25.23-4.04.6-5.47,1.12s-2.4,1.19-3.01,2.03c-.61.84-.92,1.89-.92,3.15,0,1.03.32,1.9.95,2.61s1.64,1.29,3.04,1.75c1.39.46,3.21.78,5.44.97,2.23.19,4.98.29,8.22.29,3.86,0,7.1.2,9.74.6,2.64.4,4.76,1.06,6.39,1.98s2.79,2.11,3.49,3.58c.71,1.47,1.06,3.28,1.06,5.41s-.34,3.87-1.03,5.3c-.69,1.43-1.83,2.59-3.44,3.47-1.6.88-3.72,1.51-6.36,1.89-2.64.38-5.92.57-9.85.57h-23.95v-5.04h23.95c2.86,0,5.28-.11,7.25-.32,1.97-.21,3.56-.55,4.78-1.03,1.22-.48,2.11-1.1,2.66-1.86.55-.76.83-1.7.83-2.81,0-1.22-.26-2.25-.77-3.09-.51-.84-1.37-1.52-2.58-2.03-1.2-.52-2.8-.89-4.78-1.12-1.99-.23-4.45-.34-7.39-.34Z"/>
      <path d="M940.11,521.12h-25.02v-7.19h25.02c2.81,0,5.21-.1,7.13-.31,1.86-.2,3.38-.52,4.51-.96,1.02-.4,1.76-.9,2.18-1.49.42-.58.63-1.3.63-2.18,0-1.01-.21-1.87-.62-2.53-.4-.65-1.1-1.19-2.09-1.61-1.1-.47-2.61-.82-4.48-1.04-1.93-.22-4.38-.34-7.27-.34-4.19,0-7.8-.19-10.73-.55-3-.37-5.49-1.01-7.39-1.89-2.01-.93-3.49-2.18-4.4-3.72-.9-1.52-1.35-3.39-1.35-5.56,0-2.38.46-4.44,1.36-6.1.92-1.7,2.4-3.07,4.38-4.08,1.89-.97,4.38-1.67,7.39-2.04,2.94-.41,6.55-.61,10.75-.61h20.03v7.19h-20.03c-3.2,0-5.94.11-8.14.34-2.15.22-3.9.57-5.21,1.06-1.18.44-2.03,1-2.51,1.66-.48.66-.71,1.48-.71,2.52,0,.77.22,1.39.67,1.89.5.56,1.37,1.05,2.57,1.44,1.31.43,3.06.74,5.2.92,2.18.19,4.92.28,8.13.28,3.9,0,7.23.21,9.9.61,2.75.42,5.02,1.13,6.75,2.1,1.81,1.02,3.13,2.38,3.93,4.05.77,1.61,1.17,3.59,1.17,5.88s-.38,4.19-1.14,5.76c-.79,1.63-2.09,2.96-3.89,3.94-1.71.94-3.97,1.61-6.72,2.01-2.68.39-6.04.58-10.01.58ZM917.23,518.98h22.88c3.86,0,7.12-.19,9.7-.56,2.49-.36,4.51-.96,6-1.77,1.41-.77,2.39-1.75,2.99-2.99.61-1.28.93-2.91.93-4.83s-.32-3.63-.96-4.95c-.61-1.26-1.64-2.31-3.05-3.11-1.5-.85-3.53-1.47-6.02-1.85-2.57-.39-5.79-.59-9.58-.59-3.27,0-6.07-.1-8.31-.29-2.3-.2-4.22-.54-5.68-1.02-1.59-.52-2.74-1.19-3.5-2.05-.81-.91-1.22-2.02-1.22-3.32,0-1.48.38-2.76,1.12-3.78.74-1.01,1.92-1.82,3.5-2.41,1.47-.54,3.4-.94,5.73-1.18,2.27-.23,5.09-.35,8.36-.35h17.89v-2.9h-17.89c-4.09,0-7.61.2-10.45.59-2.77.38-5.03,1.01-6.7,1.87-1.59.81-2.76,1.89-3.47,3.2-.73,1.34-1.1,3.05-1.1,5.07,0,1.78.35,3.29,1.05,4.47.69,1.16,1.85,2.12,3.45,2.87,1.7.79,3.98,1.37,6.76,1.71,2.84.36,6.37.54,10.47.54,2.97,0,5.5.12,7.51.35,2.08.24,3.79.64,5.08,1.2,1.4.6,2.44,1.43,3.07,2.46.62,1.01.93,2.24.93,3.65,0,1.33-.35,2.49-1.04,3.44-.67.93-1.73,1.68-3.14,2.23-1.31.51-3.01.88-5.06,1.1-2,.21-4.48.32-7.36.32h-22.88v2.9Z"/>
    </g>
  </g>
</svg>
